<svg xmlns="http://www.w3.org/2000/svg" viewBox="0 0 104 359" width="104" height="359">
	<defs>
		<clipPath clipPathUnits="userSpaceOnUse" id="cp1">
			<path d="M-1496 -575L104 -575L104 4347L-1496 4347Z" />
		</clipPath>
	</defs>
	<style>
		tspan { white-space:pre }
		.shp0 { fill: #00aaff } 
	</style>
	<g id="Portfolio landing page 1" clip-path="url(#cp1)">
		<g id="Group 8490">
			<g id="Group 35647">
				<path id="Path 37525" class="shp0" d="M108 6.67C108.47 5.99 108.74 5.16 108.74 4.28C108.74 3.39 108.47 2.57 108 1.89C107.24 0.75 105.93 0 104.46 0L104.46 0L104.46 0C103.57 0 102.75 0.27 102.07 0.73C100.93 1.5 100.18 2.8 100.18 4.28C100.18 5.75 100.93 7.05 102.07 7.82C102.75 8.28 103.57 8.55 104.46 8.55L104.46 8.55L104.46 8.55C105.93 8.55 107.24 7.8 108 6.67Z" />
				<path id="Path 37526" class="shp0" d="M108 31.64C108.47 30.96 108.74 30.14 108.74 29.25C108.74 28.36 108.47 27.54 108 26.86C107.24 25.72 105.93 24.97 104.46 24.97L104.46 24.97L104.46 24.97C103.57 24.97 102.75 25.24 102.07 25.71C100.93 26.47 100.18 27.78 100.18 29.25C100.18 30.73 100.93 32.03 102.07 32.8C102.75 33.26 103.57 33.53 104.46 33.53L104.46 33.53L104.46 33.53C105.93 33.53 107.24 32.78 108 31.64Z" />
				<path id="Path 37527" class="shp0" d="M108 56.61C108.47 55.93 108.74 55.11 108.74 54.22C108.74 53.34 108.47 52.51 108 51.83C107.24 50.7 105.93 49.95 104.46 49.95L104.46 49.95L104.46 49.95C103.57 49.95 102.75 50.22 102.07 50.68C100.93 51.45 100.18 52.75 100.18 54.22C100.18 55.7 100.93 57 102.07 57.77C102.75 58.23 103.57 58.5 104.46 58.5L104.46 58.5L104.46 58.5C105.93 58.5 107.24 57.75 108 56.61Z" />
				<path id="Path 37528" class="shp0" d="M108 81.59C108.47 80.91 108.74 80.08 108.74 79.2C108.74 78.31 108.47 77.49 108 76.81C107.24 75.67 105.93 74.92 104.46 74.92L104.46 74.92L104.46 74.92C103.57 74.92 102.75 75.19 102.07 75.65C100.93 76.42 100.18 77.72 100.18 79.2C100.18 80.67 100.93 81.97 102.07 82.74C102.75 83.2 103.57 83.47 104.46 83.47L104.46 83.47L104.46 83.47C105.93 83.47 107.24 82.73 108 81.59Z" />
				<path id="Path 37529" class="shp0" d="M108 106.56C108.47 105.88 108.74 105.06 108.74 104.17C108.74 103.28 108.47 102.46 108 101.78C107.24 100.64 105.93 99.89 104.46 99.89L104.46 99.89L104.46 99.89C103.57 99.89 102.75 100.16 102.07 100.62C100.93 101.39 100.18 102.69 100.18 104.17C100.18 105.65 100.93 106.95 102.07 107.72C102.75 108.18 103.57 108.45 104.46 108.45L104.46 108.45L104.46 108.45C105.93 108.45 107.24 107.7 108 106.56Z" />
				<path id="Path 37530" class="shp0" d="M108 131.53C108.47 130.85 108.74 130.03 108.74 129.14C108.74 128.26 108.47 127.43 108 126.75C107.24 125.61 105.93 124.87 104.46 124.87L104.46 124.87L104.46 124.87C103.57 124.87 102.75 125.14 102.07 125.6C100.93 126.37 100.18 127.67 100.18 129.14C100.18 130.62 100.93 131.92 102.07 132.69C102.75 133.15 103.57 133.42 104.46 133.42L104.46 133.42L104.46 133.42C105.93 133.42 107.24 132.67 108 131.53Z" />
				<path id="Path 37531" class="shp0" d="M108 156.51C108.47 155.82 108.74 155 108.74 154.12C108.74 153.23 108.47 152.41 108 151.73C107.24 150.59 105.93 149.84 104.46 149.84L104.46 149.84L104.46 149.84C103.57 149.84 102.75 150.11 102.07 150.57C100.93 151.34 100.18 152.64 100.18 154.12C100.18 155.59 100.93 156.89 102.07 157.66C102.75 158.12 103.57 158.39 104.46 158.39L104.46 158.39L104.46 158.39C105.93 158.39 107.24 157.64 108 156.51Z" />
				<path id="Path 37532" class="shp0" d="M83.76 4.28C83.76 1.92 81.85 0 79.49 0C77.12 0 75.21 1.92 75.21 4.28C75.21 6.64 77.12 8.55 79.49 8.55C81.85 8.55 83.76 6.64 83.76 4.28Z" />
				<path id="Path 37533" class="shp0" d="M83.76 29.25C83.76 26.89 81.85 24.97 79.49 24.97C77.12 24.97 75.21 26.89 75.21 29.25C75.21 31.61 77.12 33.53 79.49 33.53C81.85 33.53 83.76 31.61 83.76 29.25Z" />
				<path id="Path 37534" class="shp0" d="M83.76 54.22C83.76 51.86 81.85 49.95 79.49 49.95C77.12 49.95 75.21 51.86 75.21 54.22C75.21 56.58 77.12 58.5 79.49 58.5C81.85 58.5 83.76 56.58 83.76 54.22Z" />
				<path id="Path 37535" class="shp0" d="M83.76 79.2C83.76 76.83 81.85 74.92 79.49 74.92C77.12 74.92 75.21 76.83 75.21 79.2C75.21 81.56 77.12 83.47 79.49 83.47C81.85 83.47 83.76 81.56 83.76 79.2Z" />
				<path id="Path 37536" class="shp0" d="M83.76 104.17C83.76 101.81 81.85 99.89 79.49 99.89C77.12 99.89 75.21 101.81 75.21 104.17C75.21 106.53 77.12 108.45 79.49 108.45C81.85 108.45 83.76 106.53 83.76 104.17Z" />
				<path id="Path 37537" class="shp0" d="M83.76 129.14C83.76 126.78 81.85 124.87 79.49 124.87C77.12 124.87 75.21 126.78 75.21 129.14C75.21 131.51 77.12 133.42 79.49 133.42C81.85 133.42 83.76 131.51 83.76 129.14Z" />
				<path id="Path 37538" class="shp0" d="M83.76 154.12C83.76 151.76 81.85 149.84 79.49 149.84C77.12 149.84 75.21 151.76 75.21 154.12C75.21 156.48 77.12 158.39 79.49 158.39C81.85 158.39 83.76 156.48 83.76 154.12Z" />
				<path id="Path 37539" class="shp0" d="M58.79 4.28C58.79 1.92 56.87 0 54.51 0C52.15 0 50.24 1.92 50.24 4.28C50.24 6.64 52.15 8.55 54.51 8.55C56.87 8.55 58.79 6.64 58.79 4.28Z" />
				<path id="Path 37540" class="shp0" d="M58.79 29.25C58.79 26.89 56.87 24.97 54.51 24.97C52.15 24.97 50.24 26.89 50.24 29.25C50.24 31.61 52.15 33.53 54.51 33.53C56.87 33.53 58.79 31.61 58.79 29.25Z" />
				<path id="Path 37541" class="shp0" d="M58.79 54.22C58.79 51.86 56.87 49.95 54.51 49.95C52.15 49.95 50.24 51.86 50.24 54.22C50.24 56.58 52.15 58.5 54.51 58.5C56.87 58.5 58.79 56.58 58.79 54.22Z" />
				<path id="Path 37542" class="shp0" d="M58.79 79.2C58.79 76.83 56.87 74.92 54.51 74.92C52.15 74.92 50.24 76.83 50.24 79.2C50.24 81.56 52.15 83.47 54.51 83.47C56.87 83.47 58.79 81.56 58.79 79.2Z" />
				<path id="Path 37543" class="shp0" d="M58.79 104.17C58.79 101.81 56.87 99.89 54.51 99.89C52.15 99.89 50.24 101.81 50.24 104.17C50.24 106.53 52.15 108.45 54.51 108.45C56.87 108.45 58.79 106.53 58.79 104.17Z" />
				<path id="Path 37544" class="shp0" d="M58.79 129.14C58.79 126.78 56.87 124.87 54.51 124.87C52.15 124.87 50.24 126.78 50.24 129.14C50.24 131.51 52.15 133.42 54.51 133.42C56.87 133.42 58.79 131.51 58.79 129.14Z" />
				<path id="Path 37545" class="shp0" d="M58.79 154.12C58.79 151.76 56.87 149.84 54.51 149.84C52.15 149.84 50.24 151.76 50.24 154.12C50.24 156.48 52.15 158.39 54.51 158.39C56.87 158.39 58.79 156.48 58.79 154.12Z" />
				<path id="Path 37546" class="shp0" d="M33.81 4.28C33.81 1.92 31.9 0 29.54 0C27.18 0 25.26 1.92 25.26 4.28C25.26 6.64 27.18 8.55 29.54 8.55C31.9 8.55 33.81 6.64 33.81 4.28Z" />
				<path id="Path 37547" class="shp0" d="M33.81 29.25C33.81 26.89 31.9 24.97 29.54 24.97C27.18 24.97 25.26 26.89 25.26 29.25C25.26 31.61 27.18 33.53 29.54 33.53C31.9 33.53 33.81 31.61 33.81 29.25Z" />
				<path id="Path 37548" class="shp0" d="M33.81 54.22C33.81 51.86 31.9 49.95 29.54 49.95C27.18 49.95 25.26 51.86 25.26 54.22C25.26 56.58 27.18 58.5 29.54 58.5C31.9 58.5 33.81 56.58 33.81 54.22Z" />
				<path id="Path 37549" class="shp0" d="M33.81 79.2C33.81 76.83 31.9 74.92 29.54 74.92C27.18 74.92 25.26 76.83 25.26 79.2C25.26 81.56 27.18 83.47 29.54 83.47C31.9 83.47 33.81 81.56 33.81 79.2Z" />
				<path id="Path 37550" class="shp0" d="M33.81 104.17C33.81 101.81 31.9 99.89 29.54 99.89C27.18 99.89 25.26 101.81 25.26 104.17C25.26 106.53 27.18 108.45 29.54 108.45C31.9 108.45 33.81 106.53 33.81 104.17Z" />
				<path id="Path 37551" class="shp0" d="M33.81 129.14C33.81 126.78 31.9 124.87 29.54 124.87C27.18 124.87 25.26 126.78 25.26 129.14C25.26 131.51 27.18 133.42 29.54 133.42C31.9 133.42 33.81 131.51 33.81 129.14Z" />
				<path id="Path 37552" class="shp0" d="M33.81 154.12C33.81 151.76 31.9 149.84 29.54 149.84C27.18 149.84 25.26 151.76 25.26 154.12C25.26 156.48 27.18 158.39 29.54 158.39C31.9 158.39 33.81 156.48 33.81 154.12Z" />
				<path id="Path 37553" class="shp0" d="M8.84 4.28C8.84 1.92 6.93 0 4.56 0C2.2 0 0.29 1.92 0.29 4.28C0.29 6.64 2.2 8.55 4.56 8.55C6.93 8.55 8.84 6.64 8.84 4.28Z" />
				<path id="Path 37554" class="shp0" d="M8.84 29.25C8.84 26.89 6.93 24.97 4.56 24.97C2.2 24.97 0.29 26.89 0.29 29.25C0.29 31.61 2.2 33.53 4.56 33.53C6.93 33.53 8.84 31.61 8.84 29.25Z" />
				<path id="Path 37555" class="shp0" d="M8.84 54.22C8.84 51.86 6.93 49.95 4.56 49.95C2.2 49.95 0.29 51.86 0.29 54.22C0.29 56.58 2.2 58.5 4.56 58.5C6.93 58.5 8.84 56.58 8.84 54.22Z" />
				<path id="Path 37556" class="shp0" d="M8.84 79.2C8.84 76.83 6.93 74.92 4.56 74.92C2.2 74.92 0.29 76.83 0.29 79.2C0.29 81.56 2.2 83.47 4.56 83.47C6.93 83.47 8.84 81.56 8.84 79.2Z" />
				<path id="Path 37557" class="shp0" d="M8.84 104.17C8.84 101.81 6.93 99.89 4.56 99.89C2.2 99.89 0.29 101.81 0.29 104.17C0.29 106.53 2.2 108.45 4.56 108.45C6.93 108.45 8.84 106.53 8.84 104.17Z" />
				<path id="Path 37558" class="shp0" d="M8.84 129.14C8.84 126.78 6.93 124.87 4.56 124.87C2.2 124.87 0.29 126.78 0.29 129.14C0.29 131.51 2.2 133.42 4.56 133.42C6.93 133.42 8.84 131.51 8.84 129.14Z" />
				<path id="Path 37559" class="shp0" d="M8.84 154.12C8.84 151.76 6.93 149.84 4.56 149.84C2.2 149.84 0.29 151.76 0.29 154.12C0.29 156.48 2.2 158.39 4.56 158.39C6.93 158.39 8.84 156.48 8.84 154.12Z" />
				<path id="Path 37560" class="shp0" d="M208.63 4.28C208.63 1.92 206.71 0 204.35 0C201.99 0 200.08 1.92 200.08 4.28C200.08 6.64 201.99 8.55 204.35 8.55C206.71 8.55 208.63 6.64 208.63 4.28Z" />
				<path id="Path 37561" class="shp0" d="M208.63 29.25C208.63 26.89 206.71 24.97 204.35 24.97C201.99 24.97 200.08 26.89 200.08 29.25C200.08 31.61 201.99 33.53 204.35 33.53C206.71 33.53 208.63 31.61 208.63 29.25Z" />
				<path id="Path 37562" class="shp0" d="M208.63 54.22C208.63 51.86 206.71 49.95 204.35 49.95C201.99 49.95 200.08 51.86 200.08 54.22C200.08 56.58 201.99 58.5 204.35 58.5C206.71 58.5 208.63 56.58 208.63 54.22Z" />
				<path id="Path 37563" class="shp0" d="M208.63 79.2C208.63 76.83 206.71 74.92 204.35 74.92C201.99 74.92 200.08 76.83 200.08 79.2C200.08 81.56 201.99 83.47 204.35 83.47C206.71 83.47 208.63 81.56 208.63 79.2Z" />
				<path id="Path 37564" class="shp0" d="M208.63 104.17C208.63 101.81 206.71 99.89 204.35 99.89C201.99 99.89 200.08 101.81 200.08 104.17C200.08 106.53 201.99 108.45 204.35 108.45C206.71 108.45 208.63 106.53 208.63 104.17Z" />
				<path id="Path 37565" class="shp0" d="M208.63 129.14C208.63 126.78 206.71 124.87 204.35 124.87C201.99 124.87 200.08 126.78 200.08 129.14C200.08 131.51 201.99 133.42 204.35 133.42C206.71 133.42 208.63 131.51 208.63 129.14Z" />
				<path id="Path 37566" class="shp0" d="M208.63 154.12C208.63 151.76 206.71 149.84 204.35 149.84C201.99 149.84 200.08 151.76 200.08 154.12C200.08 156.48 201.99 158.39 204.35 158.39C206.71 158.39 208.63 156.48 208.63 154.12Z" />
				<path id="Path 37567" class="shp0" d="M183.65 4.28C183.65 1.92 181.74 0 179.38 0C177.02 0 175.1 1.92 175.1 4.28C175.1 6.64 177.02 8.55 179.38 8.55C181.74 8.55 183.65 6.64 183.65 4.28Z" />
				<path id="Path 37568" class="shp0" d="M183.65 29.25C183.65 26.89 181.74 24.97 179.38 24.97C177.02 24.97 175.1 26.89 175.1 29.25C175.1 31.61 177.02 33.53 179.38 33.53C181.74 33.53 183.65 31.61 183.65 29.25Z" />
				<path id="Path 37569" class="shp0" d="M183.65 54.22C183.65 51.86 181.74 49.95 179.38 49.95C177.02 49.95 175.1 51.86 175.1 54.22C175.1 56.58 177.02 58.5 179.38 58.5C181.74 58.5 183.65 56.58 183.65 54.22Z" />
				<path id="Path 37570" class="shp0" d="M183.65 79.2C183.65 76.83 181.74 74.92 179.38 74.92C177.02 74.92 175.1 76.83 175.1 79.2C175.1 81.56 177.02 83.47 179.38 83.47C181.74 83.47 183.65 81.56 183.65 79.2Z" />
				<path id="Path 37571" class="shp0" d="M183.65 104.17C183.65 101.81 181.74 99.89 179.38 99.89C177.02 99.89 175.1 101.81 175.1 104.17C175.1 106.53 177.02 108.45 179.38 108.45C181.74 108.45 183.65 106.53 183.65 104.17Z" />
				<path id="Path 37572" class="shp0" d="M183.65 129.14C183.65 126.78 181.74 124.87 179.38 124.87C177.02 124.87 175.1 126.78 175.1 129.14C175.1 131.51 177.02 133.42 179.38 133.42C181.74 133.42 183.65 131.51 183.65 129.14Z" />
				<path id="Path 37573" class="shp0" d="M183.65 154.12C183.65 151.76 181.74 149.84 179.38 149.84C177.02 149.84 175.1 151.76 175.1 154.12C175.1 156.48 177.02 158.39 179.38 158.39C181.74 158.39 183.65 156.48 183.65 154.12Z" />
				<path id="Path 37574" class="shp0" d="M158.68 4.28C158.68 1.92 156.77 0 154.4 0C152.04 0 150.13 1.92 150.13 4.28C150.13 6.64 152.04 8.55 154.4 8.55C156.77 8.55 158.68 6.64 158.68 4.28Z" />
				<path id="Path 37575" class="shp0" d="M158.68 29.25C158.68 26.89 156.77 24.97 154.4 24.97C152.04 24.97 150.13 26.89 150.13 29.25C150.13 31.61 152.04 33.53 154.4 33.53C156.77 33.53 158.68 31.61 158.68 29.25Z" />
				<path id="Path 37576" class="shp0" d="M158.68 54.22C158.68 51.86 156.77 49.95 154.4 49.95C152.04 49.95 150.13 51.86 150.13 54.22C150.13 56.58 152.04 58.5 154.4 58.5C156.77 58.5 158.68 56.58 158.68 54.22Z" />
				<path id="Path 37577" class="shp0" d="M158.68 79.2C158.68 76.83 156.77 74.92 154.4 74.92C152.04 74.92 150.13 76.83 150.13 79.2C150.13 81.56 152.04 83.47 154.4 83.47C156.77 83.47 158.68 81.56 158.68 79.2Z" />
				<path id="Path 37578" class="shp0" d="M158.68 104.17C158.68 101.81 156.77 99.89 154.4 99.89C152.04 99.89 150.13 101.81 150.13 104.17C150.13 106.53 152.04 108.45 154.4 108.45C156.77 108.45 158.68 106.53 158.68 104.17Z" />
				<path id="Path 37579" class="shp0" d="M158.68 129.14C158.68 126.78 156.77 124.87 154.4 124.87C152.04 124.87 150.13 126.78 150.13 129.14C150.13 131.51 152.04 133.42 154.4 133.42C156.77 133.42 158.68 131.51 158.68 129.14Z" />
				<path id="Path 37580" class="shp0" d="M158.68 154.12C158.68 151.76 156.77 149.84 154.4 149.84C152.04 149.84 150.13 151.76 150.13 154.12C150.13 156.48 152.04 158.39 154.4 158.39C156.77 158.39 158.68 156.48 158.68 154.12Z" />
				<path id="Path 37581" class="shp0" d="M133.71 4.28C133.71 1.92 131.79 0 129.43 0C127.07 0 125.15 1.92 125.15 4.28C125.15 6.64 127.07 8.55 129.43 8.55C131.79 8.55 133.71 6.64 133.71 4.28Z" />
				<path id="Path 37582" class="shp0" d="M133.71 29.25C133.71 26.89 131.79 24.97 129.43 24.97C127.07 24.97 125.15 26.89 125.15 29.25C125.15 31.61 127.07 33.53 129.43 33.53C131.79 33.53 133.71 31.61 133.71 29.25Z" />
				<path id="Path 37583" class="shp0" d="M133.71 54.22C133.71 51.86 131.79 49.95 129.43 49.95C127.07 49.95 125.15 51.86 125.15 54.22C125.15 56.58 127.07 58.5 129.43 58.5C131.79 58.5 133.71 56.58 133.71 54.22Z" />
				<path id="Path 37584" class="shp0" d="M133.71 79.2C133.71 76.83 131.79 74.92 129.43 74.92C127.07 74.92 125.15 76.83 125.15 79.2C125.15 81.56 127.07 83.47 129.43 83.47C131.79 83.47 133.71 81.56 133.71 79.2Z" />
				<path id="Path 37585" class="shp0" d="M133.71 104.17C133.71 101.81 131.79 99.89 129.43 99.89C127.07 99.89 125.15 101.81 125.15 104.17C125.15 106.53 127.07 108.45 129.43 108.45C131.79 108.45 133.71 106.53 133.71 104.17Z" />
				<path id="Path 37586" class="shp0" d="M133.71 129.14C133.71 126.78 131.79 124.87 129.43 124.87C127.07 124.87 125.15 126.78 125.15 129.14C125.15 131.51 127.07 133.42 129.43 133.42C131.79 133.42 133.71 131.51 133.71 129.14Z" />
				<path id="Path 37587" class="shp0" d="M133.71 154.12C133.71 151.76 131.79 149.84 129.43 149.84C127.07 149.84 125.15 151.76 125.15 154.12C125.15 156.48 127.07 158.39 129.43 158.39C131.79 158.39 133.71 156.48 133.71 154.12Z" />
				<path id="Path 37588" class="shp0" d="M106.85 182.63C107.3 182.33 107.7 181.94 108 181.48C108.31 181.03 108.53 180.51 108.65 179.95C108.71 179.67 108.74 179.39 108.74 179.09C108.74 178.2 108.47 177.38 108 176.7C107.24 175.56 105.93 174.81 104.46 174.81L104.46 174.81L104.46 174.81C103.57 174.81 102.75 175.08 102.07 175.54C100.93 176.31 100.18 177.61 100.18 179.09C100.18 179.39 100.21 179.67 100.27 179.95C100.5 181.07 101.16 182.02 102.07 182.63C102.75 183.1 103.57 183.37 104.46 183.37L104.46 183.37L104.46 183.37C105.34 183.37 106.17 183.1 106.85 182.63Z" />
				<path id="Path 37589" class="shp0" d="M108 206.45C108.47 205.77 108.74 204.95 108.74 204.06C108.74 203.18 108.47 202.35 108 201.67C107.24 200.54 105.93 199.79 104.46 199.79L104.46 199.79L104.46 199.79C103.57 199.79 102.75 200.06 102.07 200.52C100.93 201.29 100.18 202.59 100.18 204.06C100.18 205.54 100.93 206.84 102.07 207.61C102.75 208.07 103.57 208.34 104.46 208.34L104.46 208.34L104.46 208.34C105.93 208.34 107.24 207.59 108 206.45Z" />
				<path id="Path 37590" class="shp0" d="M108 231.43C108.47 230.75 108.74 229.92 108.74 229.04C108.74 228.15 108.47 227.33 108 226.64C107.24 225.51 105.93 224.76 104.46 224.76L104.46 224.76L104.46 224.76C103.57 224.76 102.75 225.03 102.07 225.49C100.93 226.26 100.18 227.56 100.18 229.04C100.18 230.51 100.93 231.81 102.07 232.58C102.75 233.04 103.57 233.31 104.46 233.31L104.46 233.31L104.46 233.31C105.93 233.31 107.24 232.56 108 231.43Z" />
				<path id="Path 37591" class="shp0" d="M108 256.4C108.47 255.72 108.74 254.9 108.74 254.01C108.74 253.12 108.47 252.3 108 251.62C107.24 250.48 105.93 249.73 104.46 249.73L104.46 249.73L104.46 249.73C103.57 249.73 102.75 250 102.07 250.46C100.93 251.23 100.18 252.53 100.18 254.01C100.18 255.49 100.93 256.79 102.07 257.56C102.75 258.02 103.57 258.29 104.46 258.29L104.46 258.29L104.46 258.29C105.93 258.29 107.24 257.54 108 256.4Z" />
				<path id="Path 37593" class="shp0" d="M108 306.35C108.47 305.66 108.74 304.84 108.74 303.96C108.74 303.07 108.47 302.25 108 301.57C107.24 300.43 105.93 299.68 104.46 299.68L104.46 299.68L104.46 299.68C103.57 299.68 102.75 299.95 102.07 300.41C100.93 301.18 100.18 302.48 100.18 303.96C100.18 305.43 100.93 306.73 102.07 307.5C102.75 307.96 103.57 308.23 104.46 308.23L104.46 308.23L104.46 308.23C105.93 308.23 107.24 307.49 108 306.35Z" />
				<path id="Path 37593" class="shp0" d="M108 306.35C108.47 305.66 108.74 304.84 108.74 303.96C108.74 303.07 108.47 302.25 108 301.57C107.24 300.43 105.93 299.68 104.46 299.68L104.46 299.68L104.46 299.68C103.57 299.68 102.75 299.95 102.07 300.41C100.93 301.18 100.18 302.48 100.18 303.96C100.18 305.43 100.93 306.73 102.07 307.5C102.75 307.96 103.57 308.23 104.46 308.23L104.46 308.23L104.46 308.23C105.93 308.23 107.24 307.49 108 306.35Z" />
				<path id="Path 37592" class="shp0" d="M108 281.37C108.47 280.69 108.74 279.87 108.74 278.98C108.74 278.1 108.47 277.28 108 276.59C107.24 275.45 105.93 274.71 104.46 274.71L104.46 274.71L104.46 274.71C103.57 274.71 102.75 274.98 102.07 275.44C100.93 276.2 100.18 277.51 100.18 278.98C100.18 280.46 100.93 281.76 102.07 282.53C102.75 282.99 103.57 283.26 104.46 283.26L104.46 283.26L104.46 283.26C105.93 283.26 107.24 282.51 108 281.37Z" />
				<path id="Path 37594" class="shp0" d="M108 331.32C108.47 330.64 108.74 329.81 108.74 328.93C108.74 328.04 108.47 327.22 108 326.54C107.24 325.4 105.93 324.65 104.46 324.65L104.46 324.65L104.46 324.65C103.57 324.65 102.75 324.92 102.07 325.38C100.93 326.15 100.18 327.45 100.18 328.93C100.18 330.41 100.93 331.71 102.07 332.48C102.75 332.94 103.57 333.21 104.46 333.21L104.46 333.21L104.46 333.21C105.93 333.21 107.24 332.46 108 331.32Z" />
				<path id="Path 37595" class="shp0" d="M108 356.29C108.47 355.61 108.74 354.79 108.74 353.9C108.74 353.02 108.47 352.19 108 351.51C107.24 350.37 105.93 349.63 104.46 349.63L104.46 349.63L104.46 349.63C103.57 349.63 102.75 349.9 102.07 350.36C100.93 351.13 100.18 352.43 100.18 353.9C100.18 355.38 100.93 356.68 102.07 357.45C102.75 357.91 103.57 358.18 104.46 358.18L104.46 358.18L104.46 358.18C105.93 358.18 107.24 357.43 108 356.29Z" />
				<path id="Path 37596" class="shp0" d="M83.67 179.95C83.73 179.67 83.76 179.39 83.76 179.09C83.76 176.73 81.85 174.81 79.49 174.81C77.12 174.81 75.21 176.73 75.21 179.09C75.21 179.39 75.24 179.67 75.29 179.95C75.52 181.07 76.18 182.02 77.09 182.63C77.78 183.1 78.6 183.37 79.49 183.37C80.37 183.37 81.19 183.1 81.88 182.63C82.79 182.02 83.45 181.07 83.67 179.95Z" />
				<path id="Path 37597" class="shp0" d="M83.76 204.06C83.76 201.7 81.85 199.79 79.49 199.79C77.12 199.79 75.21 201.7 75.21 204.06C75.21 206.42 77.12 208.34 79.49 208.34C81.85 208.34 83.76 206.42 83.76 204.06Z" />
				<path id="Path 37598" class="shp0" d="M83.76 229.04C83.76 226.67 81.85 224.76 79.49 224.76C77.12 224.76 75.21 226.67 75.21 229.04C75.21 231.4 77.12 233.31 79.49 233.31C81.85 233.31 83.76 231.4 83.76 229.04Z" />
				<path id="Path 37599" class="shp0" d="M83.76 254.01C83.76 251.65 81.85 249.73 79.49 249.73C77.12 249.73 75.21 251.65 75.21 254.01C75.21 256.37 77.12 258.29 79.49 258.29C81.85 258.29 83.76 256.37 83.76 254.01Z" />
				<path id="Path 37600" class="shp0" d="M83.76 278.98C83.76 276.62 81.85 274.71 79.49 274.71C77.12 274.71 75.21 276.62 75.21 278.98C75.21 281.34 77.12 283.26 79.49 283.26C81.85 283.26 83.76 281.34 83.76 278.98Z" />
				<path id="Path 37601" class="shp0" d="M83.76 303.96C83.76 301.59 81.85 299.68 79.49 299.68C77.12 299.68 75.21 301.59 75.21 303.96C75.21 306.32 77.12 308.23 79.49 308.23C81.85 308.23 83.76 306.32 83.76 303.96Z" />
				<path id="Path 37602" class="shp0" d="M83.76 328.93C83.76 326.57 81.85 324.65 79.49 324.65C77.12 324.65 75.21 326.57 75.21 328.93C75.21 331.29 77.12 333.21 79.49 333.21C81.85 333.21 83.76 331.29 83.76 328.93Z" />
				<path id="Path 37603" class="shp0" d="M83.76 353.9C83.76 351.54 81.85 349.63 79.49 349.63C77.12 349.63 75.21 351.54 75.21 353.9C75.21 356.26 77.12 358.18 79.49 358.18C81.85 358.18 83.76 356.26 83.76 353.9Z" />
				<path id="Path 37604" class="shp0" d="M58.7 179.95C58.76 179.67 58.79 179.39 58.79 179.09C58.79 176.73 56.87 174.81 54.51 174.81C52.15 174.81 50.24 176.73 50.24 179.09C50.24 179.39 50.27 179.67 50.32 179.95C50.55 181.07 51.21 182.02 52.12 182.63C52.8 183.1 53.63 183.37 54.51 183.37C55.4 183.37 56.22 183.1 56.9 182.63C57.81 182.02 58.47 181.07 58.7 179.95Z" />
				<path id="Path 37605" class="shp0" d="M58.79 204.06C58.79 201.7 56.87 199.79 54.51 199.79C52.15 199.79 50.24 201.7 50.24 204.06C50.24 206.42 52.15 208.34 54.51 208.34C56.87 208.34 58.79 206.42 58.79 204.06Z" />
				<path id="Path 37606" class="shp0" d="M58.79 229.04C58.79 226.67 56.87 224.76 54.51 224.76C52.15 224.76 50.24 226.67 50.24 229.04C50.24 231.4 52.15 233.31 54.51 233.31C56.87 233.31 58.79 231.4 58.79 229.04Z" />
				<path id="Path 37607" class="shp0" d="M58.79 254.01C58.79 251.65 56.87 249.73 54.51 249.73C52.15 249.73 50.24 251.65 50.24 254.01C50.24 256.37 52.15 258.29 54.51 258.29C56.87 258.29 58.79 256.37 58.79 254.01Z" />
				<path id="Path 37608" class="shp0" d="M58.79 278.98C58.79 276.62 56.87 274.71 54.51 274.71C52.15 274.71 50.24 276.62 50.24 278.98C50.24 281.34 52.15 283.26 54.51 283.26C56.87 283.26 58.79 281.34 58.79 278.98Z" />
				<path id="Path 37609" class="shp0" d="M58.79 303.96C58.79 301.59 56.87 299.68 54.51 299.68C52.15 299.68 50.24 301.59 50.24 303.96C50.24 306.32 52.15 308.23 54.51 308.23C56.87 308.23 58.79 306.32 58.79 303.96Z" />
				<path id="Path 37610" class="shp0" d="M58.79 328.93C58.79 326.57 56.87 324.65 54.51 324.65C52.15 324.65 50.24 326.57 50.24 328.93C50.24 331.29 52.15 333.21 54.51 333.21C56.87 333.21 58.79 331.29 58.79 328.93Z" />
				<path id="Path 37611" class="shp0" d="M58.79 353.9C58.79 351.54 56.87 349.63 54.51 349.63C52.15 349.63 50.24 351.54 50.24 353.9C50.24 356.26 52.15 358.18 54.51 358.18C56.87 358.18 58.79 356.26 58.79 353.9Z" />
				<path id="Path 37612" class="shp0" d="M33.73 179.95C33.78 179.67 33.81 179.39 33.81 179.09C33.81 176.73 31.9 174.81 29.54 174.81C27.18 174.81 25.26 176.73 25.26 179.09C25.26 179.39 25.29 179.67 25.35 179.95C25.58 181.07 26.24 182.02 27.15 182.63C27.83 183.1 28.65 183.37 29.54 183.37C30.42 183.37 31.25 183.1 31.93 182.63C32.84 182.02 33.5 181.07 33.73 179.95Z" />
				<path id="Path 37613" class="shp0" d="M33.81 204.06C33.81 201.7 31.9 199.79 29.54 199.79C27.18 199.79 25.26 201.7 25.26 204.06C25.26 206.42 27.18 208.34 29.54 208.34C31.9 208.34 33.81 206.42 33.81 204.06Z" />
				<path id="Path 37614" class="shp0" d="M33.81 229.04C33.81 226.67 31.9 224.76 29.54 224.76C27.18 224.76 25.26 226.67 25.26 229.04C25.26 231.4 27.18 233.31 29.54 233.31C31.9 233.31 33.81 231.4 33.81 229.04Z" />
				<path id="Path 37615" class="shp0" d="M33.81 254.01C33.81 251.65 31.9 249.73 29.54 249.73C27.18 249.73 25.26 251.65 25.26 254.01C25.26 256.37 27.18 258.29 29.54 258.29C31.9 258.29 33.81 256.37 33.81 254.01Z" />
				<path id="Path 37616" class="shp0" d="M33.81 278.98C33.81 276.62 31.9 274.71 29.54 274.71C27.18 274.71 25.26 276.62 25.26 278.98C25.26 281.34 27.18 283.26 29.54 283.26C31.9 283.26 33.81 281.34 33.81 278.98Z" />
				<path id="Path 37617" class="shp0" d="M33.81 303.96C33.81 301.59 31.9 299.68 29.54 299.68C27.18 299.68 25.26 301.59 25.26 303.96C25.26 306.32 27.18 308.23 29.54 308.23C31.9 308.23 33.81 306.32 33.81 303.96Z" />
				<path id="Path 37618" class="shp0" d="M33.81 328.93C33.81 326.57 31.9 324.65 29.54 324.65C27.18 324.65 25.26 326.57 25.26 328.93C25.26 331.29 27.18 333.21 29.54 333.21C31.9 333.21 33.81 331.29 33.81 328.93Z" />
				<path id="Path 37619" class="shp0" d="M33.81 353.9C33.81 351.54 31.9 349.63 29.54 349.63C27.18 349.63 25.26 351.54 25.26 353.9C25.26 356.26 27.18 358.18 29.54 358.18C31.9 358.18 33.81 356.26 33.81 353.9Z" />
				<path id="Path 37620" class="shp0" d="M8.76 179.95C8.81 179.67 8.84 179.39 8.84 179.09C8.84 176.73 6.93 174.81 4.56 174.81C2.2 174.81 0.29 176.73 0.29 179.09C0.29 179.39 0.32 179.67 0.38 179.95C0.6 181.07 1.26 182.02 2.17 182.63C2.86 183.1 3.68 183.37 4.56 183.37C5.45 183.37 6.27 183.1 6.96 182.63C7.87 182.02 8.53 181.07 8.76 179.95Z" />
				<path id="Path 37621" class="shp0" d="M8.84 204.06C8.84 201.7 6.93 199.79 4.56 199.79C2.2 199.79 0.29 201.7 0.29 204.06C0.29 206.42 2.2 208.34 4.56 208.34C6.93 208.34 8.84 206.42 8.84 204.06Z" />
				<path id="Path 37622" class="shp0" d="M8.84 229.04C8.84 226.67 6.93 224.76 4.56 224.76C2.2 224.76 0.29 226.67 0.29 229.04C0.29 231.4 2.2 233.31 4.56 233.31C6.93 233.31 8.84 231.4 8.84 229.04Z" />
				<path id="Path 37623" class="shp0" d="M8.84 254.01C8.84 251.65 6.93 249.73 4.56 249.73C2.2 249.73 0.29 251.65 0.29 254.01C0.29 256.37 2.2 258.29 4.56 258.29C6.93 258.29 8.84 256.37 8.84 254.01Z" />
				<path id="Path 37624" class="shp0" d="M8.84 278.98C8.84 276.62 6.93 274.71 4.56 274.71C2.2 274.71 0.29 276.62 0.29 278.98C0.29 281.34 2.2 283.26 4.56 283.26C6.93 283.26 8.84 281.34 8.84 278.98Z" />
				<path id="Path 37625" class="shp0" d="M8.84 303.96C8.84 301.59 6.93 299.68 4.56 299.68C2.2 299.68 0.29 301.59 0.29 303.96C0.29 306.32 2.2 308.23 4.56 308.23C6.93 308.23 8.84 306.32 8.84 303.96Z" />
				<path id="Path 37626" class="shp0" d="M8.84 328.93C8.84 326.57 6.93 324.65 4.56 324.65C2.2 324.65 0.29 326.57 0.29 328.93C0.29 331.29 2.2 333.21 4.56 333.21C6.93 333.21 8.84 331.29 8.84 328.93Z" />
				<path id="Path 37627" class="shp0" d="M8.84 353.9C8.84 351.54 6.93 349.63 4.56 349.63C2.2 349.63 0.29 351.54 0.29 353.9C0.29 356.26 2.2 358.18 4.56 358.18C6.93 358.18 8.84 356.26 8.84 353.9Z" />
				<path id="Path 37628" class="shp0" d="M208.54 179.95C208.6 179.67 208.63 179.39 208.63 179.09C208.63 176.73 206.71 174.81 204.35 174.81C201.99 174.81 200.08 176.73 200.08 179.09C200.08 179.39 200.11 179.67 200.16 179.95C200.39 181.07 201.05 182.02 201.96 182.63C202.64 183.1 203.47 183.37 204.35 183.37C205.24 183.37 206.06 183.1 206.74 182.63C207.65 182.02 208.31 181.07 208.54 179.95Z" />
				<path id="Path 37629" class="shp0" d="M208.63 204.06C208.63 201.7 206.71 199.79 204.35 199.79C201.99 199.79 200.08 201.7 200.08 204.06C200.08 206.42 201.99 208.34 204.35 208.34C206.71 208.34 208.63 206.42 208.63 204.06Z" />
				<path id="Path 37630" class="shp0" d="M208.63 229.04C208.63 226.67 206.71 224.76 204.35 224.76C201.99 224.76 200.08 226.67 200.08 229.04C200.08 231.4 201.99 233.31 204.35 233.31C206.71 233.31 208.63 231.4 208.63 229.04Z" />
				<path id="Path 37631" class="shp0" d="M208.63 254.01C208.63 251.65 206.71 249.73 204.35 249.73C201.99 249.73 200.08 251.65 200.08 254.01C200.08 256.37 201.99 258.29 204.35 258.29C206.71 258.29 208.63 256.37 208.63 254.01Z" />
				<path id="Path 37632" class="shp0" d="M208.63 278.98C208.63 276.62 206.71 274.71 204.35 274.71C201.99 274.71 200.08 276.62 200.08 278.98C200.08 281.34 201.99 283.26 204.35 283.26C206.71 283.26 208.63 281.34 208.63 278.98Z" />
				<path id="Path 37633" class="shp0" d="M208.63 303.96C208.63 301.59 206.71 299.68 204.35 299.68C201.99 299.68 200.08 301.59 200.08 303.96C200.08 306.32 201.99 308.23 204.35 308.23C206.71 308.23 208.63 306.32 208.63 303.96Z" />
				<path id="Path 37634" class="shp0" d="M208.63 328.93C208.63 326.57 206.71 324.65 204.35 324.65C201.99 324.65 200.08 326.57 200.08 328.93C200.08 331.29 201.99 333.21 204.35 333.21C206.71 333.21 208.63 331.29 208.63 328.93Z" />
				<path id="Path 37635" class="shp0" d="M200.08 353.9C200.08 356.26 201.99 358.18 204.35 358.18C206.71 358.18 208.63 356.26 208.63 353.9C208.63 351.54 206.71 349.63 204.35 349.63C201.99 349.63 200.08 351.54 200.08 353.9Z" />
				<path id="Path 37636" class="shp0" d="M183.57 179.95C183.62 179.67 183.65 179.39 183.65 179.09C183.65 176.73 181.74 174.81 179.38 174.81C177.02 174.81 175.1 176.73 175.1 179.09C175.1 179.39 175.13 179.67 175.19 179.95C175.42 181.07 176.08 182.02 176.99 182.63C177.67 183.1 178.49 183.37 179.38 183.37C180.26 183.37 181.09 183.1 181.77 182.63C182.68 182.02 183.34 181.07 183.57 179.95Z" />
				<path id="Path 37637" class="shp0" d="M183.65 204.06C183.65 201.7 181.74 199.79 179.38 199.79C177.02 199.79 175.1 201.7 175.1 204.06C175.1 206.42 177.02 208.34 179.38 208.34C181.74 208.34 183.65 206.42 183.65 204.06Z" />
				<path id="Path 37638" class="shp0" d="M183.65 229.04C183.65 226.67 181.74 224.76 179.38 224.76C177.02 224.76 175.1 226.67 175.1 229.04C175.1 231.4 177.02 233.31 179.38 233.31C181.74 233.31 183.65 231.4 183.65 229.04Z" />
				<path id="Path 37639" class="shp0" d="M183.65 254.01C183.65 251.65 181.74 249.73 179.38 249.73C177.02 249.73 175.1 251.65 175.1 254.01C175.1 256.37 177.02 258.29 179.38 258.29C181.74 258.29 183.65 256.37 183.65 254.01Z" />
				<path id="Path 37640" class="shp0" d="M183.65 278.98C183.65 276.62 181.74 274.71 179.38 274.71C177.02 274.71 175.1 276.62 175.1 278.98C175.1 281.34 177.02 283.26 179.38 283.26C181.74 283.26 183.65 281.34 183.65 278.98Z" />
				<path id="Path 37641" class="shp0" d="M183.65 303.96C183.65 301.59 181.74 299.68 179.38 299.68C177.02 299.68 175.1 301.59 175.1 303.96C175.1 306.32 177.02 308.23 179.38 308.23C181.74 308.23 183.65 306.32 183.65 303.96Z" />
				<path id="Path 37642" class="shp0" d="M183.65 328.93C183.65 326.57 181.74 324.65 179.38 324.65C177.02 324.65 175.1 326.57 175.1 328.93C175.1 331.29 177.02 333.21 179.38 333.21C181.74 333.21 183.65 331.29 183.65 328.93Z" />
				<path id="Path 37643" class="shp0" d="M183.65 353.9C183.65 351.54 181.74 349.63 179.38 349.63C177.02 349.63 175.1 351.54 175.1 353.9C175.1 356.26 177.02 358.18 179.38 358.18C181.74 358.18 183.65 356.26 183.65 353.9Z" />
				<path id="Path 37644" class="shp0" d="M158.59 179.95C158.65 179.67 158.68 179.39 158.68 179.09C158.68 176.73 156.77 174.81 154.4 174.81C152.04 174.81 150.13 176.73 150.13 179.09C150.13 179.39 150.16 179.67 150.22 179.95C150.44 181.07 151.1 182.02 152.01 182.63C152.7 183.1 153.52 183.37 154.4 183.37C155.29 183.37 156.11 183.1 156.8 182.63C157.7 182.02 158.37 181.07 158.59 179.95Z" />
				<path id="Path 37645" class="shp0" d="M158.68 204.06C158.68 201.7 156.77 199.79 154.4 199.79C152.04 199.79 150.13 201.7 150.13 204.06C150.13 206.42 152.04 208.34 154.4 208.34C156.77 208.34 158.68 206.42 158.68 204.06Z" />
				<path id="Path 37646" class="shp0" d="M158.68 229.04C158.68 226.67 156.77 224.76 154.4 224.76C152.04 224.76 150.13 226.67 150.13 229.04C150.13 231.4 152.04 233.31 154.4 233.31C156.77 233.31 158.68 231.4 158.68 229.04Z" />
				<path id="Path 37647" class="shp0" d="M158.68 254.01C158.68 251.65 156.77 249.73 154.4 249.73C152.04 249.73 150.13 251.65 150.13 254.01C150.13 256.37 152.04 258.29 154.4 258.29C156.77 258.29 158.68 256.37 158.68 254.01Z" />
				<path id="Path 37648" class="shp0" d="M158.68 278.98C158.68 276.62 156.77 274.71 154.4 274.71C152.04 274.71 150.13 276.62 150.13 278.98C150.13 281.34 152.04 283.26 154.4 283.26C156.77 283.26 158.68 281.34 158.68 278.98Z" />
				<path id="Path 37649" class="shp0" d="M158.68 303.96C158.68 301.59 156.77 299.68 154.4 299.68C152.04 299.68 150.13 301.59 150.13 303.96C150.13 306.32 152.04 308.23 154.4 308.23C156.77 308.23 158.68 306.32 158.68 303.96Z" />
				<path id="Path 37650" class="shp0" d="M158.68 328.93C158.68 326.57 156.77 324.65 154.4 324.65C152.04 324.65 150.13 326.57 150.13 328.93C150.13 331.29 152.04 333.21 154.4 333.21C156.77 333.21 158.68 331.29 158.68 328.93Z" />
				<path id="Path 37651" class="shp0" d="M158.68 353.9C158.68 351.54 156.77 349.63 154.4 349.63C152.04 349.63 150.13 351.54 150.13 353.9C150.13 356.26 152.04 358.18 154.4 358.18C156.77 358.18 158.68 356.26 158.68 353.9Z" />
				<path id="Path 37652" class="shp0" d="M133.62 179.95C133.68 179.67 133.71 179.39 133.71 179.09C133.71 176.73 131.79 174.81 129.43 174.81C127.07 174.81 125.15 176.73 125.15 179.09C125.15 179.39 125.18 179.67 125.24 179.95C125.47 181.07 126.13 182.02 127.04 182.63C127.72 183.1 128.55 183.37 129.43 183.37C130.32 183.37 131.14 183.1 131.82 182.63C132.73 182.02 133.39 181.07 133.62 179.95Z" />
				<path id="Path 37653" class="shp0" d="M133.71 204.06C133.71 201.7 131.79 199.79 129.43 199.79C127.07 199.79 125.15 201.7 125.15 204.06C125.15 206.42 127.07 208.34 129.43 208.34C131.79 208.34 133.71 206.42 133.71 204.06Z" />
				<path id="Path 37654" class="shp0" d="M133.71 229.04C133.71 226.67 131.79 224.76 129.43 224.76C127.07 224.76 125.15 226.67 125.15 229.04C125.15 231.4 127.07 233.31 129.43 233.31C131.79 233.31 133.71 231.4 133.71 229.04Z" />
				<path id="Path 37655" class="shp0" d="M133.71 254.01C133.71 251.65 131.79 249.73 129.43 249.73C127.07 249.73 125.15 251.65 125.15 254.01C125.15 256.37 127.07 258.29 129.43 258.29C131.79 258.29 133.71 256.37 133.71 254.01Z" />
				<path id="Path 37656" class="shp0" d="M133.71 278.98C133.71 276.62 131.79 274.71 129.43 274.71C127.07 274.71 125.15 276.62 125.15 278.98C125.15 281.34 127.07 283.26 129.43 283.26C131.79 283.26 133.71 281.34 133.71 278.98Z" />
				<path id="Path 37657" class="shp0" d="M133.71 303.96C133.71 301.59 131.79 299.68 129.43 299.68C127.07 299.68 125.15 301.59 125.15 303.96C125.15 306.32 127.07 308.23 129.43 308.23C131.79 308.23 133.71 306.32 133.71 303.96Z" />
				<path id="Path 37658" class="shp0" d="M133.71 328.93C133.71 326.57 131.79 324.65 129.43 324.65C127.07 324.65 125.15 326.57 125.15 328.93C125.15 331.29 127.07 333.21 129.43 333.21C131.79 333.21 133.71 331.29 133.71 328.93Z" />
				<path id="Path 37659" class="shp0" d="M133.71 353.9C133.71 351.54 131.79 349.63 129.43 349.63C127.07 349.63 125.15 351.54 125.15 353.9C125.15 356.26 127.07 358.18 129.43 358.18C131.79 358.18 133.71 356.26 133.71 353.9Z" />
			</g>
		</g>
	</g>
</svg>