<svg xmlns="http://www.w3.org/2000/svg" viewBox="0 0 36 33" width="36" height="33">
	<defs>
		<clipPath clipPathUnits="userSpaceOnUse" id="cp1">
			<path d="M-709 -1167L891 -1167L891 3755L-709 3755Z" />
		</clipPath>
		<linearGradient id="grd1" gradientUnits="userSpaceOnUse"  x1="35" y1="16.406" x2="0" y2="16.406">
			<stop offset="0" stop-color="#29b3ba"  />
			<stop offset="1" stop-color="#46eeaa"  />
		</linearGradient>
	</defs>
	<style>
		tspan { white-space:pre }
		.shp0 { fill: url(#grd1) } 
	</style>
	<g id="Portfolio landing page 1" clip-path="url(#cp1)">
		<g id="Group 8480">
			<g id="Group 8479">
				<path id="Union 2" fill-rule="evenodd" class="shp0" d="M9.3 32.81C8.92 32.81 8.61 32.51 8.61 32.13L8.61 28.71L6.56 28.71C6.18 28.71 5.88 28.4 5.88 28.03L5.88 25.98L2.05 25.98C0.92 25.98 0 25.06 0 23.93L0 11.62C0 10.49 0.92 9.57 2.05 9.57L5 9.57C3.86 8.57 3.14 7.1 3.14 5.47C3.14 2.45 5.6 0 8.61 0C10.67 0 12.46 1.14 13.4 2.82C14.33 1.14 16.13 0 18.18 0C21.2 0 23.65 2.45 23.65 5.47C23.65 7.1 22.93 8.57 21.8 9.57L24.34 9.57C25.47 9.57 26.39 10.49 26.39 11.62L26.39 12.3L28.22 12.3L33.93 8.33C34.13 8.18 34.41 8.16 34.63 8.28C34.86 8.4 35 8.63 35 8.89L35 25.29C35 25.55 34.86 25.78 34.63 25.9C34.4 26.02 34.13 26 33.93 25.85L28.22 21.88L26.39 21.88L26.39 23.93C26.39 25.06 25.47 25.98 24.34 25.98L20.92 25.98L20.92 28.03C20.92 28.4 20.61 28.71 20.23 28.71L18.18 28.71L18.18 32.13C18.18 32.51 17.88 32.81 17.5 32.81L9.3 32.81ZM9.98 31.45L16.82 31.45L16.82 28.71L9.98 28.71L9.98 31.45ZM7.25 27.34L19.55 27.34L19.55 25.98L7.25 25.98L7.25 27.34ZM1.37 11.62L1.37 23.93C1.37 24.3 1.67 24.61 2.05 24.61L24.34 24.61C24.71 24.61 25.02 24.3 25.02 23.93L25.02 11.62C25.02 11.24 24.71 10.94 24.34 10.94L2.05 10.94C1.67 10.94 1.37 11.24 1.37 11.62ZM29.12 13.35L29.12 20.83L33.63 23.98L33.63 10.2L29.12 13.35ZM26.39 20.51L27.75 20.51L27.75 13.67L26.39 13.67L26.39 20.51ZM14.08 5.47C14.08 7.73 15.92 9.57 18.18 9.57C20.45 9.57 22.28 7.73 22.28 5.47C22.28 3.21 20.45 1.37 18.18 1.37C15.92 1.37 14.08 3.21 14.08 5.47ZM12.22 9.57L14.57 9.57C14.1 9.16 13.7 8.66 13.4 8.11C13.09 8.66 12.69 9.16 12.22 9.57ZM4.51 5.47C4.51 7.73 6.35 9.57 8.61 9.57C10.87 9.57 12.72 7.73 12.72 5.47C12.72 3.21 10.87 1.37 8.61 1.37C6.35 1.37 4.51 3.21 4.51 5.47ZM7.93 21.88C7.55 21.88 7.25 21.57 7.25 21.19C7.25 20.81 7.55 20.51 7.93 20.51L21.6 20.51C21.98 20.51 22.28 20.81 22.28 21.19C22.28 21.57 21.98 21.88 21.6 21.88L7.93 21.88ZM4.51 21.19C4.51 20.81 4.82 20.51 5.2 20.51C5.57 20.51 5.88 20.81 5.88 21.19C5.88 21.57 5.57 21.88 5.2 21.88C4.82 21.88 4.51 21.57 4.51 21.19ZM20.92 18.46C20.92 18.08 21.22 17.77 21.6 17.77C21.98 17.77 22.28 18.08 22.28 18.46C22.28 18.83 21.98 19.14 21.6 19.14C21.22 19.14 20.92 18.83 20.92 18.46ZM5.2 19.14C4.82 19.14 4.51 18.83 4.51 18.46L4.51 14.36C4.51 13.98 4.82 13.67 5.2 13.67L14.77 13.67C15.14 13.67 15.45 13.98 15.45 14.36L15.45 18.46C15.45 18.83 15.14 19.14 14.77 19.14L5.2 19.14ZM5.88 17.77L14.08 17.77L14.08 15.04L5.88 15.04L5.88 17.77ZM20.92 14.36C20.92 13.98 21.22 13.67 21.6 13.67C21.98 13.67 22.28 13.98 22.28 14.36C22.28 14.73 21.98 15.04 21.6 15.04C21.22 15.04 20.92 14.73 20.92 14.36ZM16.13 5.47C16.13 4.34 17.05 3.42 18.18 3.42C19.31 3.42 20.23 4.34 20.23 5.47C20.23 6.6 19.31 7.52 18.18 7.52C17.05 7.52 16.13 6.6 16.13 5.47ZM17.5 5.47C17.5 5.85 17.81 6.15 18.18 6.15C18.56 6.15 18.87 5.85 18.87 5.47C18.87 5.09 18.56 4.79 18.18 4.79C17.81 4.79 17.5 5.09 17.5 5.47ZM6.56 5.47C6.56 4.34 7.48 3.42 8.61 3.42C9.74 3.42 10.66 4.34 10.66 5.47C10.66 6.6 9.74 7.52 8.61 7.52C7.48 7.52 6.56 6.6 6.56 5.47ZM7.93 5.47C7.93 5.85 8.24 6.15 8.61 6.15C8.99 6.15 9.3 5.85 9.3 5.47C9.3 5.09 8.99 4.79 8.61 4.79C8.24 4.79 7.93 5.09 7.93 5.47Z" />
			</g>
		</g>
	</g>
</svg>