<svg xmlns="http://www.w3.org/2000/svg" viewBox="0 0 36 28" width="36" height="28">
	<defs>
		<clipPath clipPathUnits="userSpaceOnUse" id="cp1">
			<path d="M-1077 -965L523 -965L523 3957L-1077 3957Z" />
		</clipPath>
		<linearGradient id="grd1" gradientUnits="userSpaceOnUse"  x1="35" y1="15.6" x2="0" y2="15.6">
			<stop offset="0" stop-color="#ff8359"  />
			<stop offset="1" stop-color="#ffdf40"  />
		</linearGradient>
	</defs>
	<style>
		tspan { white-space:pre }
		.shp0 { fill: url(#grd1) } 
	</style>
	<g id="Portfolio landing page 1" clip-path="url(#cp1)">
		<g id="Group 8480">
			<g id="Group 8479">
				<path id="Union 1" fill-rule="evenodd" class="shp0" d="M2.05 27.34C0.92 27.34 0 26.42 0 25.29L0 7.52C0 6.39 0.92 5.47 2.05 5.47L2.73 5.47L2.73 4.79C2.73 3.65 3.65 2.73 4.79 2.73L7.52 2.73C8.65 2.73 9.57 3.65 9.57 4.79L9.57 5.47L12.18 5.47L13.16 1.55C13.39 0.64 14.21 0 15.15 0L26.69 0C27.63 0 28.45 0.64 28.68 1.55L29.65 5.47L32.95 5.47C34.08 5.47 35 6.39 35 7.52L35 25.29C35 26.42 34.08 27.34 32.95 27.34L2.05 27.34ZM1.37 25.29C1.37 25.67 1.67 25.98 2.05 25.98L32.95 25.98C33.33 25.98 33.63 25.67 33.63 25.29L33.63 7.52C33.63 7.14 33.33 6.84 32.95 6.84L2.05 6.84C1.67 6.84 1.37 7.14 1.37 7.52L1.37 9.57L6.15 9.57C7.28 9.57 8.2 10.49 8.2 11.62L8.2 21.19C8.2 22.32 7.28 23.24 6.15 23.24L1.37 23.24L1.37 25.29ZM1.37 21.88L6.15 21.88C6.53 21.88 6.84 21.57 6.84 21.19L6.84 11.62C6.84 11.24 6.53 10.94 6.15 10.94L1.37 10.94L1.37 13.67L3.42 13.67C3.8 13.67 4.1 13.98 4.1 14.36C4.1 14.73 3.8 15.04 3.42 15.04L1.37 15.04L1.37 17.77L3.42 17.77C3.8 17.77 4.1 18.08 4.1 18.46C4.1 18.83 3.8 19.14 3.42 19.14L1.37 19.14L1.37 21.88ZM14.49 1.89L13.59 5.47L28.25 5.47L27.35 1.88C27.27 1.58 27 1.37 26.69 1.37L15.15 1.37C14.84 1.37 14.56 1.58 14.49 1.89ZM4.1 4.79L4.1 5.47L8.2 5.47L8.2 4.79C8.2 4.41 7.9 4.1 7.52 4.1L4.79 4.1C4.41 4.1 4.1 4.41 4.1 4.79ZM12.72 16.41C12.72 11.88 16.39 8.2 20.92 8.2C25.44 8.2 29.12 11.88 29.12 16.41C29.12 20.93 25.44 24.61 20.92 24.61C16.39 24.61 12.72 20.93 12.72 16.41ZM14.08 16.41C14.08 20.18 17.15 23.24 20.92 23.24C24.69 23.24 27.75 20.18 27.75 16.41C27.75 12.64 24.69 9.57 20.92 9.57C17.15 9.57 14.08 12.64 14.08 16.41ZM15.45 16.41C15.45 13.39 17.9 10.94 20.92 10.94C23.93 10.94 26.39 13.39 26.39 16.41C26.39 19.42 23.93 21.88 20.92 21.88C17.9 21.88 15.45 19.42 15.45 16.41ZM16.82 16.41C16.82 18.67 18.66 20.51 20.92 20.51C23.18 20.51 25.02 18.67 25.02 16.41C25.02 14.14 23.18 12.3 20.92 12.3C18.66 12.3 16.82 14.14 16.82 16.41ZM18.18 16.41C18.18 14.9 19.41 13.67 20.92 13.67C21.3 13.67 21.6 13.98 21.6 14.36C21.6 14.73 21.3 15.04 20.92 15.04C20.16 15.04 19.55 15.65 19.55 16.41C19.55 16.78 19.24 17.09 18.87 17.09C18.49 17.09 18.18 16.78 18.18 16.41ZM28.44 9.57C28.06 9.57 27.75 9.26 27.75 8.89C27.75 8.51 28.06 8.2 28.44 8.2L31.58 8.2C31.96 8.2 32.27 8.51 32.27 8.89C32.27 9.26 31.96 9.57 31.58 9.57L28.44 9.57ZM19.55 4.1C19.17 4.1 18.87 3.8 18.87 3.42C18.87 3.04 19.17 2.73 19.55 2.73L25.02 2.73C25.4 2.73 25.7 3.04 25.7 3.42C25.7 3.8 25.4 4.1 25.02 4.1L19.55 4.1ZM16.13 3.42C16.13 3.04 16.44 2.73 16.82 2.73C17.19 2.73 17.5 3.04 17.5 3.42C17.5 3.8 17.19 4.1 16.82 4.1C16.44 4.1 16.13 3.8 16.13 3.42Z" />
			</g>
		</g>
	</g>
</svg>