<svg xmlns="http://www.w3.org/2000/svg" viewBox="0 0 36 34" width="36" height="34">
	<defs>
		<clipPath clipPathUnits="userSpaceOnUse" id="cp1">
			<path d="M-709 -962L891 -962L891 3960L-709 3960Z" />
		</clipPath>
		<linearGradient id="grd1" gradientUnits="userSpaceOnUse"  x1="35" y1="16.578" x2="0" y2="16.578">
			<stop offset="0" stop-color="#1270e3"  />
			<stop offset="1" stop-color="#59c2ff"  />
		</linearGradient>
	</defs>
	<style>
		tspan { white-space:pre }
		.shp0 { fill: url(#grd1) } 
	</style>
	<g id="Portfolio landing page 1" clip-path="url(#cp1)">
		<g id="Group 8480">
			<g id="Group 8479">
				<path id="Union 4" fill-rule="evenodd" class="shp0" d="M17.5 33.13C17.18 33.13 12.83 33.19 12.37 33.13C11.89 33.06 12.37 32.68 12.98 32.23C13.58 31.79 13.65 31.12 13.65 31.12L13.87 29.66L21.12 29.66L21.35 31.12C21.35 31.12 21.42 31.79 22.02 32.23C22.63 32.68 23.11 33.06 22.63 33.13C22.47 33.15 21.84 33.16 21.07 33.16C19.63 33.16 17.71 33.13 17.5 33.13ZM1.4 28.26C0.63 28.26 0 27.64 0 26.86L0 6.56C0 5.79 0.63 5.16 1.4 5.16L21.5 5.16L20.02 7.26L2.1 7.26L2.1 24.06L32.9 24.06L32.9 7.26L27.3 7.26L29.23 5.16L33.6 5.16C34.37 5.16 35 5.79 35 6.56L35 26.86C35 27.64 34.37 28.26 33.6 28.26L1.4 28.26ZM9.33 20.62C11.27 20.6 11.51 20.13 12.14 18.19C13.31 15.12 18.55 18.99 15.3 20.34C14.04 20.86 12.56 21.02 11.34 21.02C9.43 21.02 8.15 20.62 9.33 20.62ZM15.74 17.08C14.8 16.33 14.8 16.56 15.78 15.34L25.71 1.22C26.7 0.01 28.25 -0.37 29.19 0.39C30.13 1.15 30.1 2.75 29.12 3.97L17.44 16.68C16.9 17.34 16.73 17.63 16.52 17.63C16.36 17.63 16.17 17.43 15.74 17.08ZM26.01 1.53C26.49 1.91 26.64 2.08 26.64 2.08C26.64 2.08 26.81 1.36 28.16 0.56C28.16 0.56 28.06 0.54 27.89 0.54C27.44 0.54 26.54 0.66 26.01 1.53Z" />
			</g>
		</g>
	</g>
</svg>