<svg xmlns="http://www.w3.org/2000/svg" viewBox="0 0 36 33" width="36" height="33">
	<defs>
		<clipPath clipPathUnits="userSpaceOnUse" id="cp1">
			<path d="M-1077 -1167L523 -1167L523 3755L-1077 3755Z" />
		</clipPath>
		<linearGradient id="grd1" gradientUnits="userSpaceOnUse"  x1="35" y1="18.5" x2="0" y2="19.5">
			<stop offset="0" stop-color="#b122e5"  />
			<stop offset="1" stop-color="#ff63de"  />
		</linearGradient>
	</defs>
	<style>
		tspan { white-space:pre }
		.shp0 { fill: url(#grd1) } 
	</style>
	<g id="Portfolio landing page 1" clip-path="url(#cp1)">
		<g id="Group 8480">
			<g id="Group 8479">
				<path id="Union 3" fill-rule="evenodd" class="shp0" d="M2.05 32.81C0.92 32.81 0 31.89 0 30.76L0 2.05C0 0.92 0.92 0 2.05 0L32.95 0C34.08 0 35 0.92 35 2.05L35 30.76C35 31.89 34.08 32.81 32.95 32.81L2.05 32.81ZM1.37 30.76C1.37 31.14 1.67 31.45 2.05 31.45L32.95 31.45C33.33 31.45 33.63 31.14 33.63 30.76L33.63 6.84L1.37 6.84L1.37 30.76ZM1.37 2.05L1.37 5.47L33.63 5.47L33.63 2.05C33.63 1.67 33.33 1.37 32.95 1.37L2.05 1.37C1.67 1.37 1.37 1.67 1.37 2.05ZM15.46 27.92L18.19 11.51C18.26 11.14 18.61 10.89 18.98 10.95C19.35 11.01 19.6 11.36 19.54 11.73L16.81 28.14C16.75 28.47 16.46 28.71 16.13 28.71C15.71 28.71 15.39 28.33 15.46 27.92ZM22.48 25.78C22.22 25.51 22.22 25.08 22.48 24.81L27.47 19.82L22.48 14.84C22.22 14.57 22.22 14.14 22.48 13.87C22.75 13.61 23.18 13.61 23.45 13.87L28.92 19.34C29.19 19.61 29.19 20.04 28.92 20.31L23.45 25.78C23.32 25.91 23.14 25.98 22.97 25.98C22.79 25.98 22.62 25.91 22.48 25.78ZM11.55 25.78L6.08 20.31C5.81 20.04 5.81 19.61 6.08 19.34L11.55 13.87C11.82 13.61 12.25 13.61 12.51 13.87C12.78 14.14 12.78 14.57 12.51 14.84L7.53 19.82L12.51 24.81C12.78 25.08 12.78 25.51 12.51 25.78C12.38 25.91 12.21 25.98 12.03 25.98C11.86 25.98 11.68 25.91 11.55 25.78ZM24.34 4.1C23.96 4.1 23.65 3.8 23.65 3.42C23.65 3.04 23.96 2.73 24.34 2.73L30.21 2.73C30.59 2.73 30.9 3.04 30.9 3.42C30.9 3.8 30.59 4.1 30.21 4.1L24.34 4.1ZM20.92 3.42C20.92 3.04 21.22 2.73 21.6 2.73C21.98 2.73 22.28 3.04 22.28 3.42C22.28 3.8 21.98 4.1 21.6 4.1C21.22 4.1 20.92 3.8 20.92 3.42ZM9.98 3.42C9.98 3.04 10.29 2.73 10.66 2.73C11.04 2.73 11.35 3.04 11.35 3.42C11.35 3.8 11.04 4.1 10.66 4.1C10.29 4.1 9.98 3.8 9.98 3.42ZM7.25 3.42C7.25 3.04 7.55 2.73 7.93 2.73C8.31 2.73 8.61 3.04 8.61 3.42C8.61 3.8 8.31 4.1 7.93 4.1C7.55 4.1 7.25 3.8 7.25 3.42ZM4.51 3.42C4.51 3.04 4.82 2.73 5.2 2.73C5.57 2.73 5.88 3.04 5.88 3.42C5.88 3.8 5.57 4.1 5.2 4.1C4.82 4.1 4.51 3.8 4.51 3.42Z" />
			</g>
		</g>
	</g>
</svg>